<svg xmlns="http://www.w3.org/2000/svg" width="1215.601" height="1215.592" viewBox="0 0 1215.601 1215.592"><g transform="translate(-32.226 1247.818)"><path d="M55-1246.5c-10.5,3.5-20,14.1-22.2,24.8-4.3,20.6,16.3,41.2,36.9,36.9,15.5-3.2,27.5-19,26-33.9-1.1-10.5-9-21.3-19-26.2C70.6-1247.8,61.2-1248.5,55-1246.5Z" fill="#326247"/><path d="M183-1246.5c-15.1,5-25.3,21.6-22.2,36.2,2.5,11.9,13.6,23,25.4,25.5,19.4,4.1,39.5-14.2,37.5-33.9-1.1-10.5-9-21.3-19-26.2C198.6-1247.8,189.2-1248.5,183-1246.5Z" fill="#326247"/><path d="M311-1246.5c-10.5,3.5-20,14.1-22.2,24.8-4.3,20.6,16.3,41.2,36.9,36.9,15.5-3.2,27.5-19,26-33.9-1.1-10.5-9-21.3-19-26.2C326.6-1247.8,317.2-1248.5,311-1246.5Z" fill="#326247"/><path d="M439-1246.5c-10.5,3.5-20,14.1-22.2,24.8-4.3,20.6,16.3,41.2,36.9,36.9,15.5-3.2,27.5-19,26-33.9-1.1-10.5-9-21.3-19-26.2C454.6-1247.8,445.2-1248.5,439-1246.5Z" fill="#326247"/><path d="M567-1246.5c-10.5,3.5-20,14.1-22.2,24.8-4.3,20.6,16.3,41.2,36.9,36.9,15.5-3.2,27.5-19,26-33.9-1.1-10.5-9-21.3-19-26.2C582.6-1247.8,573.2-1248.5,567-1246.5Z" fill="#326247"/><path d="M695-1246.5c-10.5,3.5-20,14.1-22.2,24.8-4.3,20.6,16.3,41.2,36.9,36.9,15.5-3.2,27.5-19,26-33.9-1.1-10.5-9-21.3-19-26.2C710.6-1247.8,701.2-1248.5,695-1246.5Z" fill="#326247"/><path d="M823-1246.5c-10.5,3.5-20,14.1-22.2,24.8-4.3,20.6,16.3,41.2,36.9,36.9,15.5-3.2,27.5-19,26-33.9-1.1-10.5-9-21.3-19-26.2C838.6-1247.8,829.2-1248.5,823-1246.5Z" fill="#326247"/><path d="M951-1246.5c-10.5,3.5-20,14.1-22.2,24.8-4.3,20.6,16.3,41.2,36.9,36.9,15.5-3.2,27.5-19,26-33.9-1.1-10.5-9-21.3-19-26.2C966.6-1247.8,957.2-1248.5,951-1246.5Z" fill="#326247"/><path d="M1079-1246.5c-10.5,3.5-20,14.1-22.2,24.8-2.5,11.7,3.2,24.4,14.2,31.9,10.7,7.4,22.9,7.5,33.7.3,17.7-11.8,20.1-33.8,5.3-48.5C1101.5-1246.6,1089.3-1249.9,1079-1246.5Z" fill="#326247"/><path d="M1207-1246.5c-10.5,3.5-20,14.1-22.2,24.8-2.5,11.7,3.2,24.4,14.2,31.9,10.7,7.4,22.9,7.5,33.7.3,17.7-11.8,20.1-33.8,5.3-48.5C1229.5-1246.6,1217.3-1249.9,1207-1246.5Z" fill="#326247"/><path d="M55-1118.5c-10.5,3.5-20,14.1-22.2,24.8-4.3,20.6,16.3,41.2,36.9,36.9,15.5-3.2,27.5-19,26-33.9-1.1-10.5-9-21.3-19-26.2C70.6-1119.8,61.2-1120.5,55-1118.5Z" fill="#326247"/><path d="M183-1118.5c-15.1,5-25.3,21.6-22.2,36.2,2.5,11.9,13.6,23,25.4,25.5,19.4,4.1,39.5-14.2,37.5-33.9-1.1-10.5-9-21.3-19-26.2C198.6-1119.8,189.2-1120.5,183-1118.5Z" fill="#326247"/><path d="M311-1118.5c-10.5,3.5-20,14.1-22.2,24.8-4.3,20.6,16.3,41.2,36.9,36.9,15.5-3.2,27.5-19,26-33.9-1.1-10.5-9-21.3-19-26.2C326.6-1119.8,317.2-1120.5,311-1118.5Z" fill="#326247"/><path d="M439-1118.5c-10.5,3.5-20,14.1-22.2,24.8-4.3,20.6,16.3,41.2,36.9,36.9,15.5-3.2,27.5-19,26-33.9-1.1-10.5-9-21.3-19-26.2C454.6-1119.8,445.2-1120.5,439-1118.5Z" fill="#326247"/><path d="M567-1118.5c-10.5,3.5-20,14.1-22.2,24.8-4.3,20.6,16.3,41.2,36.9,36.9,15.5-3.2,27.5-19,26-33.9-1.1-10.5-9-21.3-19-26.2C582.6-1119.8,573.2-1120.5,567-1118.5Z" fill="#326247"/><path d="M695-1118.5c-10.5,3.5-20,14.1-22.2,24.8-4.3,20.6,16.3,41.2,36.9,36.9,15.5-3.2,27.5-19,26-33.9-1.1-10.5-9-21.3-19-26.2C710.6-1119.8,701.2-1120.5,695-1118.5Z" fill="#326247"/><path d="M823-1118.5c-10.5,3.5-20,14.1-22.2,24.8-4.3,20.6,16.3,41.2,36.9,36.9,15.5-3.2,27.5-19,26-33.9-1.1-10.5-9-21.3-19-26.2C838.6-1119.8,829.2-1120.5,823-1118.5Z" fill="#326247"/><path d="M951-1118.5c-10.5,3.5-20,14.1-22.2,24.8-4.3,20.6,16.3,41.2,36.9,36.9,15.5-3.2,27.5-19,26-33.9-1.1-10.5-9-21.3-19-26.2C966.6-1119.8,957.2-1120.5,951-1118.5Z" fill="#326247"/><path d="M1079-1118.5c-10.5,3.5-20,14.1-22.2,24.8-2.5,11.7,3.2,24.4,14.2,31.9,10.7,7.4,22.9,7.5,33.7.3,17.7-11.8,20.1-33.8,5.3-48.5C1101.5-1118.6,1089.3-1121.9,1079-1118.5Z" fill="#326247"/><path d="M1207-1118.5c-10.5,3.5-20,14.1-22.2,24.8-2.5,11.7,3.2,24.4,14.2,31.9,10.7,7.4,22.9,7.5,33.7.3,17.7-11.8,20.1-33.8,5.3-48.5C1229.5-1118.6,1217.3-1121.9,1207-1118.5Z" fill="#326247"/><path d="M55-990.5c-10.5,3.5-20,14.1-22.2,24.8-4.3,20.6,16.3,41.2,36.9,36.9,15.5-3.2,27.5-19,26-33.9-1.1-10.5-9-21.3-19-26.2C70.6-991.8,61.2-992.5,55-990.5Z" fill="#326247"/><path d="M183-990.5c-10.5,3.5-20,14.1-22.2,24.8-4.3,20.6,16.3,41.2,36.9,36.9,15.5-3.2,27.5-19,26-33.9-1.1-10.5-9-21.3-19-26.2C198.6-991.8,189.2-992.5,183-990.5Z" fill="#326247"/><path d="M311-990.5c-10.5,3.5-20,14.1-22.2,24.8-4.3,20.6,16.3,41.2,36.9,36.9,15.5-3.2,27.5-19,26-33.9-1.1-10.5-9-21.3-19-26.2C326.6-991.8,317.2-992.5,311-990.5Z" fill="#326247"/><path d="M439-990.5c-10.5,3.5-20,14.1-22.2,24.8-4.3,20.6,16.3,41.2,36.9,36.9,15.5-3.2,27.5-19,26-33.9-1.1-10.5-9-21.3-19-26.2C454.6-991.8,445.2-992.5,439-990.5Z" fill="#326247"/><path d="M567-990.5c-10.5,3.5-20,14.1-22.2,24.8-4.3,20.6,16.3,41.2,36.9,36.9,15.5-3.2,27.5-19,26-33.9-1.1-10.5-9-21.3-19-26.2C582.6-991.8,573.2-992.5,567-990.5Z" fill="#326247"/><path d="M695-990.5c-10.5,3.5-20,14.1-22.2,24.8-4.3,20.6,16.3,41.2,36.9,36.9,15.5-3.2,27.5-19,26-33.9-1.1-10.5-9-21.3-19-26.2C710.6-991.8,701.2-992.5,695-990.5Z" fill="#326247"/><path d="M823-990.5c-10.5,3.5-20,14.1-22.2,24.8-4.3,20.6,16.3,41.2,36.9,36.9,15.5-3.2,27.5-19,26-33.9-1.1-10.5-9-21.3-19-26.2C838.6-991.8,829.2-992.5,823-990.5Z" fill="#326247"/><path d="M951-990.5c-10.5,3.5-20,14.1-22.2,24.8-4.3,20.6,16.3,41.2,36.9,36.9,15.5-3.2,27.5-19,26-33.9-1.1-10.5-9-21.3-19-26.2C966.6-991.8,957.2-992.5,951-990.5Z" fill="#326247"/><path d="M1079-990.5c-10.5,3.5-20,14.1-22.2,24.8-4.3,20.6,16.3,41.2,36.9,36.9,15.5-3.2,27.5-19,26-33.9-1.1-10.5-9-21.3-19-26.2C1094.6-991.8,1085.2-992.5,1079-990.5Z" fill="#326247"/><path d="M1207-990.5c-10.5,3.5-20,14.1-22.2,24.8-4.3,20.6,16.3,41.2,36.9,36.9,15.5-3.2,27.5-19,26-33.9-1.1-10.5-9-21.3-19-26.2C1222.6-991.8,1213.2-992.5,1207-990.5Z" fill="#326247"/><path d="M55-862.5c-10.5,3.5-20,14.1-22.2,24.8-4.3,20.6,16.3,41.2,36.9,36.9,15.5-3.2,27.5-19,26-33.9-1.1-10.5-9-21.3-19-26.2C70.6-863.8,61.2-864.5,55-862.5Z" fill="#326247"/><path d="M183-862.5c-10.5,3.5-20,14.1-22.2,24.8-4.3,20.6,16.3,41.2,36.9,36.9,15.5-3.2,27.5-19,26-33.9-1.1-10.5-9-21.3-19-26.2C198.6-863.8,189.2-864.5,183-862.5Z" fill="#326247"/><path d="M311-862.5c-10.5,3.5-20,14.1-22.2,24.8-4.3,20.6,16.3,41.2,36.9,36.9,15.5-3.2,27.5-19,26-33.9-1.1-10.5-9-21.3-19-26.2C326.6-863.8,317.2-864.5,311-862.5Z" fill="#326247"/><path d="M439-862.5c-10.5,3.5-20,14.1-22.2,24.8-4.3,20.6,16.3,41.2,36.9,36.9,15.5-3.2,27.5-19,26-33.9-1.1-10.5-9-21.3-19-26.2C454.6-863.8,445.2-864.5,439-862.5Z" fill="#326247"/><path d="M567-862.5c-10.5,3.5-20,14.1-22.2,24.8-4.3,20.6,16.3,41.2,36.9,36.9,15.5-3.2,27.5-19,26-33.9-1.1-10.5-9-21.3-19-26.2C582.6-863.8,573.2-864.5,567-862.5Z" fill="#326247"/><path d="M695-862.5c-10.5,3.5-20,14.1-22.2,24.8-4.3,20.6,16.3,41.2,36.9,36.9,15.5-3.2,27.5-19,26-33.9-1.1-10.5-9-21.3-19-26.2C710.6-863.8,701.2-864.5,695-862.5Z" fill="#326247"/><path d="M823-862.5c-10.5,3.5-20,14.1-22.2,24.8-4.3,20.6,16.3,41.2,36.9,36.9,15.5-3.2,27.5-19,26-33.9-1.1-10.5-9-21.3-19-26.2C838.6-863.8,829.2-864.5,823-862.5Z" fill="#326247"/><path d="M951-862.5c-10.5,3.5-20,14.1-22.2,24.8-4.3,20.6,16.3,41.2,36.9,36.9,15.5-3.2,27.5-19,26-33.9-1.1-10.5-9-21.3-19-26.2C966.6-863.8,957.2-864.5,951-862.5Z" fill="#326247"/><path d="M1079-862.5c-10.5,3.5-20,14.1-22.2,24.8-4.3,20.6,16.3,41.2,36.9,36.9,15.5-3.2,27.5-19,26-33.9-1.1-10.5-9-21.3-19-26.2C1094.6-863.8,1085.2-864.5,1079-862.5Z" fill="#326247"/><path d="M1207-862.5c-10.5,3.5-20,14.1-22.2,24.8-4.3,20.6,16.3,41.2,36.9,36.9,15.5-3.2,27.5-19,26-33.9-1.1-10.5-9-21.3-19-26.2C1222.6-863.8,1213.2-864.5,1207-862.5Z" fill="#326247"/><path d="M55-734.5c-10.5,3.5-20,14.1-22.2,24.8-4.3,20.6,16.3,41.2,36.9,36.9,15.5-3.2,27.5-19,26-33.9-1.1-10.5-9-21.3-19-26.2C70.6-735.8,61.2-736.5,55-734.5Z" fill="#326247"/><path d="M183-734.5c-10.5,3.5-20,14.1-22.2,24.8-4.3,20.6,16.3,41.2,36.9,36.9,15.5-3.2,27.5-19,26-33.9-1.1-10.5-9-21.3-19-26.2C198.6-735.8,189.2-736.5,183-734.5Z" fill="#326247"/><path d="M311-734.5c-10.5,3.5-20,14.1-22.2,24.8-4.3,20.6,16.3,41.2,36.9,36.9,15.5-3.2,27.5-19,26-33.9-1.1-10.5-9-21.3-19-26.2C326.6-735.8,317.2-736.5,311-734.5Z" fill="#326247"/><path d="M439-734.5c-10.5,3.5-20,14.1-22.2,24.8-4.3,20.6,16.3,41.2,36.9,36.9,15.5-3.2,27.5-19,26-33.9-1.1-10.5-9-21.3-19-26.2C454.6-735.8,445.2-736.5,439-734.5Z" fill="#326247"/><path d="M567-734.5c-10.5,3.5-20,14.1-22.2,24.8-4.3,20.6,16.3,41.2,36.9,36.9,15.5-3.2,27.5-19,26-33.9-1.1-10.5-9-21.3-19-26.2C582.6-735.8,573.2-736.5,567-734.5Z" fill="#326247"/><path d="M695-734.5c-10.5,3.5-20,14.1-22.2,24.8-4.3,20.6,16.3,41.2,36.9,36.9,15.5-3.2,27.5-19,26-33.9-1.1-10.5-9-21.3-19-26.2C710.6-735.8,701.2-736.5,695-734.5Z" fill="#326247"/><path d="M823-734.5c-10.5,3.5-20,14.1-22.2,24.8-4.3,20.6,16.3,41.2,36.9,36.9,15.5-3.2,27.5-19,26-33.9-1.1-10.5-9-21.3-19-26.2C838.6-735.8,829.2-736.5,823-734.5Z" fill="#326247"/><path d="M951-734.5c-10.5,3.5-20,14.1-22.2,24.8-4.3,20.6,16.3,41.2,36.9,36.9,15.5-3.2,27.5-19,26-33.9-1.1-10.5-9-21.3-19-26.2C966.6-735.8,957.2-736.5,951-734.5Z" fill="#326247"/><path d="M1079-734.5c-10.5,3.5-20,14.1-22.2,24.8-4.3,20.6,16.3,41.2,36.9,36.9,15.5-3.2,27.5-19,26-33.9-1.1-10.5-9-21.3-19-26.2C1094.6-735.8,1085.2-736.5,1079-734.5Z" fill="#326247"/><path d="M1207-734.5c-10.5,3.5-20,14.1-22.2,24.8-4.3,20.6,16.3,41.2,36.9,36.9,15.5-3.2,27.5-19,26-33.9-1.1-10.5-9-21.3-19-26.2C1222.6-735.8,1213.2-736.5,1207-734.5Z" fill="#326247"/><path d="M55-606.5c-10.5,3.5-20,14.1-22.2,24.8-4.3,20.6,16.3,41.2,36.9,36.9,15.5-3.2,27.5-19,26-33.9-1.1-10.5-9-21.3-19-26.2C70.6-607.8,61.2-608.5,55-606.5Z" fill="#326247"/><path d="M183-606.5c-10.5,3.5-20,14.1-22.2,24.8-4.3,20.6,16.3,41.2,36.9,36.9,15.5-3.2,27.5-19,26-33.9-1.1-10.5-9-21.3-19-26.2C198.6-607.8,189.2-608.5,183-606.5Z" fill="#326247"/><path d="M311-606.5c-10.5,3.5-20,14.1-22.2,24.8-4.3,20.6,16.3,41.2,36.9,36.9,15.5-3.2,27.5-19,26-33.9-1.1-10.5-9-21.3-19-26.2C326.6-607.8,317.2-608.5,311-606.5Z" fill="#326247"/><path d="M439-606.5c-10.5,3.5-20,14.1-22.2,24.8-4.3,20.6,16.3,41.2,36.9,36.9,15.5-3.2,27.5-19,26-33.9-1.1-10.5-9-21.3-19-26.2C454.6-607.8,445.2-608.5,439-606.5Z" fill="#326247"/><path d="M567-606.5c-10.5,3.5-20,14.1-22.2,24.8-4.3,20.6,16.3,41.2,36.9,36.9,15.5-3.2,27.5-19,26-33.9-1.1-10.5-9-21.3-19-26.2C582.6-607.8,573.2-608.5,567-606.5Z" fill="#326247"/><path d="M695-606.5c-10.5,3.5-20,14.1-22.2,24.8-4.3,20.6,16.3,41.2,36.9,36.9,15.5-3.2,27.5-19,26-33.9-1.1-10.5-9-21.3-19-26.2C710.6-607.8,701.2-608.5,695-606.5Z" fill="#326247"/><path d="M823-606.5c-10.5,3.5-20,14.1-22.2,24.8-4.3,20.6,16.3,41.2,36.9,36.9,15.5-3.2,27.5-19,26-33.9-1.1-10.5-9-21.3-19-26.2C838.6-607.8,829.2-608.5,823-606.5Z" fill="#326247"/><path d="M951-606.5c-10.5,3.5-20,14.1-22.2,24.8-4.3,20.6,16.3,41.2,36.9,36.9,15.5-3.2,27.5-19,26-33.9-1.1-10.5-9-21.3-19-26.2C966.6-607.8,957.2-608.5,951-606.5Z" fill="#326247"/><path d="M1079-606.5c-10.5,3.5-20,14.1-22.2,24.8-4.3,20.6,16.3,41.2,36.9,36.9,15.5-3.2,27.5-19,26-33.9-1.1-10.5-9-21.3-19-26.2C1094.6-607.8,1085.2-608.5,1079-606.5Z" fill="#326247"/><path d="M1207-606.5c-10.5,3.5-20,14.1-22.2,24.8-4.3,20.6,16.3,41.2,36.9,36.9,15.5-3.2,27.5-19,26-33.9-1.1-10.5-9-21.3-19-26.2C1222.6-607.8,1213.2-608.5,1207-606.5Z" fill="#326247"/><path d="M55-478.5c-10.5,3.5-20,14.1-22.2,24.8-4.3,20.6,16.3,41.2,36.9,36.9,15.5-3.2,27.5-19,26-33.9-1.1-10.5-9-21.3-19-26.2C70.6-479.8,61.2-480.5,55-478.5Z" fill="#326247"/><path d="M183-478.5c-10.5,3.5-20,14.1-22.2,24.8-4.3,20.6,16.3,41.2,36.9,36.9,15.5-3.2,27.5-19,26-33.9-1.1-10.5-9-21.3-19-26.2C198.6-479.8,189.2-480.5,183-478.5Z" fill="#326247"/><path d="M311-478.5c-10.5,3.5-20,14.1-22.2,24.8-2.5,11.7,3.2,24.4,14.2,31.9,10.7,7.4,22.9,7.5,33.7.3,17.7-11.8,20.1-33.8,5.3-48.5C333.5-478.6,321.3-481.9,311-478.5Z" fill="#326247"/><path d="M439-478.5c-10.5,3.5-20,14.1-22.2,24.8-2.5,11.7,3.2,24.4,14.2,31.9,10.7,7.4,22.9,7.5,33.7.3,17.7-11.8,20.1-33.8,5.3-48.5C461.5-478.6,449.3-481.9,439-478.5Z" fill="#326247"/><path d="M567-478.5c-15.1,5-25.3,21.6-22.2,36.2,2.5,11.9,13.6,23,25.5,25.5,19.3,4.1,39.4-14.2,37.4-33.9-1.1-10.5-9-21.3-19-26.2C582.6-479.8,573.2-480.5,567-478.5Z" fill="#326247"/><path d="M695-478.5c-15.1,5-25.3,21.6-22.2,36.2,2.5,11.9,13.6,23,25.5,25.5,19.3,4.1,39.4-14.2,37.4-33.9-1.1-10.5-9-21.3-19-26.2C710.6-479.8,701.2-480.5,695-478.5Z" fill="#326247"/><path d="M823-478.5c-15.1,5-25.3,21.6-22.2,36.2,2.5,11.9,13.6,23,25.5,25.5,19.3,4.1,39.4-14.2,37.4-33.9-1.1-10.5-9-21.3-19-26.2C838.6-479.8,829.2-480.5,823-478.5Z" fill="#326247"/><path d="M951-478.5c-15.1,5-25.3,21.6-22.2,36.2,2.5,11.9,13.6,23,25.5,25.5,19.3,4.1,39.4-14.2,37.4-33.9-1.1-10.5-9-21.3-19-26.2C966.6-479.8,957.2-480.5,951-478.5Z" fill="#326247"/><path d="M1079-478.5c-10.5,3.5-20,14.1-22.2,24.8-4.3,20.6,16.3,41.2,36.9,36.9,15.5-3.2,27.5-19,26-33.9-1.1-10.5-9-21.3-19-26.2C1094.6-479.8,1085.2-480.5,1079-478.5Z" fill="#326247"/><path d="M1207-478.5c-10.5,3.5-20,14.1-22.2,24.8-4.3,20.6,16.3,41.2,36.9,36.9,15.5-3.2,27.5-19,26-33.9-1.1-10.5-9-21.3-19-26.2C1222.6-479.8,1213.2-480.5,1207-478.5Z" fill="#326247"/><path d="M55-350.5c-10.5,3.5-20,14.1-22.2,24.8-4.3,20.6,16.3,41.2,36.9,36.9,15.5-3.2,27.5-19,26-33.9-1.1-10.5-9-21.3-19-26.2C70.6-351.8,61.2-352.5,55-350.5Z" fill="#326247"/><path d="M183-350.5c-10.5,3.5-20,14.1-22.2,24.8-4.3,20.6,16.3,41.2,36.9,36.9,15.5-3.2,27.5-19,26-33.9-1.1-10.5-9-21.3-19-26.2C198.6-351.8,189.2-352.5,183-350.5Z" fill="#326247"/><path d="M311-350.5c-10.5,3.5-20,14.1-22.2,24.8-2.5,11.7,3.2,24.4,14.2,31.9,10.7,7.4,22.9,7.5,33.7.3,17.7-11.8,20.1-33.8,5.3-48.5C333.5-350.6,321.3-353.9,311-350.5Z" fill="#326247"/><path d="M439-350.5c-10.5,3.5-20,14.1-22.2,24.8-2.5,11.7,3.2,24.4,14.2,31.9,10.7,7.4,22.9,7.5,33.7.3,17.7-11.8,20.1-33.8,5.3-48.5C461.5-350.6,449.3-353.9,439-350.5Z" fill="#326247"/><path d="M567-350.5c-15.1,5-25.3,21.6-22.2,36.2,2.5,11.9,13.6,23,25.5,25.5,19.3,4.1,39.4-14.2,37.4-33.9-1.1-10.5-9-21.3-19-26.2C582.6-351.8,573.2-352.5,567-350.5Z" fill="#326247"/><path d="M695-350.5c-15.1,5-25.3,21.6-22.2,36.2,2.5,11.9,13.6,23,25.5,25.5,19.3,4.1,39.4-14.2,37.4-33.9-1.1-10.5-9-21.3-19-26.2C710.6-351.8,701.2-352.5,695-350.5Z" fill="#326247"/><path d="M823-350.5c-15.1,5-25.3,21.6-22.2,36.2,2.5,11.9,13.6,23,25.5,25.5,19.3,4.1,39.4-14.2,37.4-33.9-1.1-10.5-9-21.3-19-26.2C838.6-351.8,829.2-352.5,823-350.5Z" fill="#326247"/><path d="M951-350.5c-15.1,5-25.3,21.6-22.2,36.2,2.5,11.9,13.6,23,25.5,25.5,19.3,4.1,39.4-14.2,37.4-33.9-1.1-10.5-9-21.3-19-26.2C966.6-351.8,957.2-352.5,951-350.5Z" fill="#326247"/><path d="M1079-350.5c-10.5,3.5-20,14.1-22.2,24.8-4.3,20.6,16.3,41.2,36.9,36.9,15.5-3.2,27.5-19,26-33.9-1.1-10.5-9-21.3-19-26.2C1094.6-351.8,1085.2-352.5,1079-350.5Z" fill="#326247"/><path d="M1207-350.5c-10.5,3.5-20,14.1-22.2,24.8-4.3,20.6,16.3,41.2,36.9,36.9,15.5-3.2,27.5-19,26-33.9-1.1-10.5-9-21.3-19-26.2C1222.6-351.8,1213.2-352.5,1207-350.5Z" fill="#326247"/><path d="M55-222.5c-10.5,3.5-20,14.1-22.2,24.8-4.3,20.6,16.3,41.2,36.9,36.9,15.5-3.2,27.5-19,26-33.9-1.1-10.5-9-21.3-19-26.2C70.6-223.8,61.2-224.5,55-222.5Z" fill="#326247"/><path d="M183-222.5c-10.5,3.5-20,14.1-22.2,24.8-4.3,20.6,16.3,41.2,36.9,36.9,15.5-3.2,27.5-19,26-33.9-1.1-10.5-9-21.3-19-26.2C198.6-223.8,189.2-224.5,183-222.5Z" fill="#326247"/><path d="M311-222.5c-10.5,3.5-20,14.1-22.2,24.8-2.5,11.7,3.2,24.4,14.2,31.9,10.7,7.4,22.9,7.5,33.7.3,17.7-11.8,20.1-33.8,5.3-48.5C333.5-222.6,321.3-225.9,311-222.5Z" fill="#326247"/><path d="M439-222.5c-10.5,3.5-20,14.1-22.2,24.8-2.5,11.7,3.2,24.4,14.2,31.9,10.7,7.4,22.9,7.5,33.7.3,17.7-11.8,20.1-33.8,5.3-48.5C461.5-222.6,449.3-225.9,439-222.5Z" fill="#326247"/><path d="M567-222.5c-10.5,3.5-20,14.1-22.2,24.8-4.3,20.6,16.3,41.2,36.9,36.9,15.5-3.2,27.5-19,26-33.9-1.1-10.5-9-21.3-19-26.2C582.6-223.8,573.2-224.5,567-222.5Z" fill="#326247"/><path d="M695-222.5c-10.5,3.5-20,14.1-22.2,24.8-4.3,20.6,16.3,41.2,36.9,36.9,15.5-3.2,27.5-19,26-33.9-1.1-10.5-9-21.3-19-26.2C710.6-223.8,701.2-224.5,695-222.5Z" fill="#326247"/><path d="M823-222.5c-10.5,3.5-20,14.1-22.2,24.8-4.3,20.6,16.3,41.2,36.9,36.9,15.5-3.2,27.5-19,26-33.9-1.1-10.5-9-21.3-19-26.2C838.6-223.8,829.2-224.5,823-222.5Z" fill="#326247"/><path d="M951-222.5c-10.5,3.5-20,14.1-22.2,24.8-4.3,20.6,16.3,41.2,36.9,36.9,15.5-3.2,27.5-19,26-33.9-1.1-10.5-9-21.3-19-26.2C966.6-223.8,957.2-224.5,951-222.5Z" fill="#326247"/><path d="M1079-222.5c-10.5,3.5-20,14.1-22.2,24.8-4.3,20.6,16.3,41.2,36.9,36.9,15.5-3.2,27.5-19,26-33.9-1.1-10.5-9-21.3-19-26.2C1094.6-223.8,1085.2-224.5,1079-222.5Z" fill="#326247"/><path d="M1207-222.5c-10.5,3.5-20,14.1-22.2,24.8-4.3,20.6,16.3,41.2,36.9,36.9,15.5-3.2,27.5-19,26-33.9-1.1-10.5-9-21.3-19-26.2C1222.6-223.8,1213.2-224.5,1207-222.5Z" fill="#326247"/><path d="M55-94.5C44.5-91,35-80.4,32.8-69.7,28.5-49.1,49.1-28.5,69.7-32.8c15.5-3.2,27.5-19,26-33.9-1.1-10.5-9-21.3-19-26.2C70.6-95.8,61.2-96.5,55-94.5Z" fill="#326247"/><path d="M183-94.5c-10.5,3.5-20,14.1-22.2,24.8-4.3,20.6,16.3,41.2,36.9,36.9,15.5-3.2,27.5-19,26-33.9-1.1-10.5-9-21.3-19-26.2C198.6-95.8,189.2-96.5,183-94.5Z" fill="#326247"/><path d="M311-94.5c-10.5,3.5-20,14.1-22.2,24.8-4.3,20.6,16.3,41.2,36.9,36.9,15.5-3.2,27.5-19,26-33.9-1.1-10.5-9-21.3-19-26.2C326.6-95.8,317.2-96.5,311-94.5Z" fill="#326247"/><path d="M439-94.5c-10.5,3.5-20,14.1-22.2,24.8-4.3,20.6,16.3,41.2,36.9,36.9,15.5-3.2,27.5-19,26-33.9-1.1-10.5-9-21.3-19-26.2C454.6-95.8,445.2-96.5,439-94.5Z" fill="#326247"/><path d="M567-94.5c-10.5,3.5-20,14.1-22.2,24.8-4.3,20.6,16.3,41.2,36.9,36.9,15.5-3.2,27.5-19,26-33.9-1.1-10.5-9-21.3-19-26.2C582.6-95.8,573.2-96.5,567-94.5Z" fill="#326247"/><path d="M695-94.5c-10.5,3.5-20,14.1-22.2,24.8-4.3,20.6,16.3,41.2,36.9,36.9,15.5-3.2,27.5-19,26-33.9-1.1-10.5-9-21.3-19-26.2C710.6-95.8,701.2-96.5,695-94.5Z" fill="#326247"/><path d="M823-94.5c-10.5,3.5-20,14.1-22.2,24.8-4.3,20.6,16.3,41.2,36.9,36.9,15.5-3.2,27.5-19,26-33.9-1.1-10.5-9-21.3-19-26.2C838.6-95.8,829.2-96.5,823-94.5Z" fill="#326247"/><path d="M951-94.5c-10.5,3.5-20,14.1-22.2,24.8-4.3,20.6,16.3,41.2,36.9,36.9,15.5-3.2,27.5-19,26-33.9-1.1-10.5-9-21.3-19-26.2C966.6-95.8,957.2-96.5,951-94.5Z" fill="#326247"/><path d="M1079-94.5c-10.5,3.5-20,14.1-22.2,24.8-4.3,20.6,16.3,41.2,36.9,36.9,15.5-3.2,27.5-19,26-33.9-1.1-10.5-9-21.3-19-26.2C1094.6-95.8,1085.2-96.5,1079-94.5Z" fill="#326247"/><path d="M1207-94.5c-10.5,3.5-20,14.1-22.2,24.8-4.3,20.6,16.3,41.2,36.9,36.9,15.5-3.2,27.5-19,26-33.9-1.1-10.5-9-21.3-19-26.2C1222.6-95.8,1213.2-96.5,1207-94.5Z" fill="#326247"/></g></svg>