<svg xmlns="http://www.w3.org/2000/svg" xmlns:xlink="http://www.w3.org/1999/xlink" width="99" height="94" viewBox="0 0 99 94"><defs><filter id="a" x="0" y="0" width="99" height="94" filterUnits="userSpaceOnUse"><feOffset dy="3" input="SourceAlpha"/><feGaussianBlur stdDeviation="3" result="b"/><feFlood flood-opacity="0.161"/><feComposite operator="in" in2="b"/><feComposite in="SourceGraphic"/></filter></defs><g transform="translate(9 6)"><g transform="matrix(1, 0, 0, 1, -9, -6)" filter="url(#a)"><rect width="81" height="76" rx="11" transform="translate(9 6)" fill="#ffa41c"/></g><g transform="translate(12.388 10)"><path d="M50.612,47.325H48.891L45.45,37H16.674L13.232,47.325h-8.6L.612,59.372H54.627Zm1.627,10.325H40.86l2.868-8.6h5.644ZM47.078,47.325H35.7l2.868-8.6h5.644Zm-29.163-8.6H36.752l-2.868,8.6H15.046ZM5.869,49.046H24.706l-2.868,8.6H3Zm17.782,8.6,2.868-8.6h5.644l2.868,8.6Zm10.326-8.6h7.938l-2.868,8.6h-2.2Z" transform="translate(0 -5.024)" fill="#fff"/><path d="M9.245,38.294,22.151,25.387l6.023,6.023L41.6,17.988l3.627,3.626L48.2,6.725,33.313,9.7l3.626,3.627-8.765,8.765L22.151,16.07,4.586,33.636Zm18.93-13.767,11.2-11.2L36.8,10.76l9.2-1.841-1.841,9.2L41.6,15.554,28.175,28.977l-6.023-6.023L9.245,35.861,7.019,33.636,22.151,18.5Z" transform="translate(-0.555 -0.799)" fill="#fff"/><path d="M12,9h1.721v2.581H12Z" transform="translate(-1.589 -1.116)" fill="#fff"/><path d="M0,0H1.721V2.581H0Z" transform="translate(7.011 10.005) rotate(-45)" fill="#fff"/><path d="M7,14H9.581v1.721H7Z" transform="translate(-0.891 -1.814)" fill="#fff"/><path d="M0,0H2.581V1.721H0Z" transform="translate(7.011 16.087) rotate(-45)" fill="#fff"/><path d="M12,18h1.721v2.581H12Z" transform="translate(-1.589 -2.372)" fill="#fff"/><path d="M0,0H1.721V2.581H0Z" transform="translate(12.485 15.479) rotate(-45)" fill="#fff"/><path d="M16,14h2.581v1.721H16Z" transform="translate(-2.147 -1.814)" fill="#fff"/><path d="M0,0H2.581V1.721H0Z" transform="translate(12.486 10.613) rotate(-45)" fill="#fff"/><path d="M31,7h1.721V8.721H31Z" transform="translate(-4.24 -0.837)" fill="#fff"/><path d="M31,11h1.721v1.721H31Z" transform="translate(-4.24 -1.395)" fill="#fff"/><path d="M33,9h1.721v1.721H33Z" transform="translate(-4.52 -1.116)" fill="#fff"/><path d="M29,9h1.721v1.721H29Z" transform="translate(-3.961 -1.116)" fill="#fff"/><path d="M57,25h1.721v1.721H57Z" transform="translate(-7.869 -3.349)" fill="#fff"/><path d="M57,29h1.721v1.721H57Z" transform="translate(-7.869 -3.907)" fill="#fff"/><path d="M59,27h1.721v1.721H59Z" transform="translate(-8.148 -3.628)" fill="#fff"/><path d="M55,27h1.721v1.721H55Z" transform="translate(-7.589 -3.628)" fill="#fff"/><path d="M59,1h1.721V2.721H59Z" transform="translate(-8.148)" fill="#fff"/><path d="M59,5h1.721V6.721H59Z" transform="translate(-8.148 -0.558)" fill="#fff"/><path d="M61,3h1.721V4.721H61Z" transform="translate(-8.427 -0.279)" fill="#fff"/><path d="M57,3h1.721V4.721H57Z" transform="translate(-7.869 -0.279)" fill="#fff"/><path d="M18,1h1.721V2.721H18Z" transform="translate(-2.426)" fill="#fff"/><path d="M18,5h1.721V6.721H18Z" transform="translate(-2.426 -0.558)" fill="#fff"/><path d="M20,3h1.721V4.721H20Z" transform="translate(-2.705 -0.279)" fill="#fff"/><path d="M16,3h1.721V4.721H16Z" transform="translate(-2.147 -0.279)" fill="#fff"/><path d="M3,28H4.721v1.721H3Z" transform="translate(-0.333 -3.768)" fill="#fff"/><path d="M3,32H4.721v1.721H3Z" transform="translate(-0.333 -4.326)" fill="#fff"/><path d="M5,30H6.721v1.721H5Z" transform="translate(-0.612 -4.047)" fill="#fff"/><path d="M1,30H2.721v1.721H1Z" transform="translate(-0.054 -4.047)" fill="#fff"/><path d="M26,41h1.721v1.721H26Z" transform="translate(-3.543 -5.582)" fill="#fff"/><path d="M30,41h1.721v1.721H30Z" transform="translate(-4.101 -5.582)" fill="#fff"/><path d="M22,41h1.721v1.721H22Z" transform="translate(-2.985 -5.582)" fill="#fff"/><path d="M16,53h1.721v1.721H16Z" transform="translate(-2.147 -7.256)" fill="#fff"/><path d="M12,53h1.721v1.721H12Z" transform="translate(-1.589 -7.256)" fill="#fff"/><path d="M8,53H9.721v1.721H8Z" transform="translate(-1.031 -7.256)" fill="#fff"/></g></g></svg>