<svg xmlns="http://www.w3.org/2000/svg" width="306.72" height="112.374" viewBox="0 0 306.72 112.374"><g transform="translate(824.767 70.645)"><g transform="translate(-840 -70.695)"><path d="M429.457,205.66q-7.067,0-7.067,6.421,0,6.315,7.067,6.31t7.067-6.3q0-6.421-7.067-6.421" transform="translate(-252.763 -176.74)" fill="#ed6a26"/><rect width="12.075" height="60.887" transform="translate(170.654 47.536)" fill="#ed6a26"/><path d="M525.64,241.17a15.683,15.683,0,0,0-8.831,2.3,13.6,13.6,0,0,0-4.955,5.4q-3.423-7.713-13.676-7.713a15.185,15.185,0,0,0-8.489,2.14,12.668,12.668,0,0,0-4.5,4.6v-6.315H473.68v61.967h12.08V258.287a6.508,6.508,0,0,1,2.28-5.245,8.5,8.5,0,0,1,5.7-1.928q7.289,0,7.293,7.274v45.153h12.191V258.277a6.508,6.508,0,0,1,2.28-5.245,8.5,8.5,0,0,1,5.7-1.928q7.293,0,7.293,7.274v45.153h12.191V256.026q0-6.845-3.933-10.86t-11.087-4" transform="translate(-279.329 -195.128)" fill="#ed6a26"/><path d="M640.517,205.66q-7.062,0-7.067,6.421,0,6.315,7.067,6.31t7.062-6.3q0-6.421-7.062-6.421" transform="translate(-362.083 -176.74)" fill="#ed6a26"/><rect width="12.075" height="60.887" transform="translate(272.399 47.536)" fill="#ed6a26"/><path d="M697.525,281.666q-6.04,0-6.04-5.992V239.612h11.964v-9.843H691.485V218.32h-8.527l-3.08,11.449h-7.2v9.843h6.609V276.1q0,16.052,16.067,16.052a42.979,42.979,0,0,0,9-1.393V280.268a19.788,19.788,0,0,1-6.831,1.4" transform="translate(-382.402 -183.298)" fill="#ed6a26"/><path d="M203.566,220.4c2.492-.781,5-1.639,7.53-2.618l4.228-1.634L166.974,145.77l-12.379,19.875,6.016,4.382,6.6-10.542,36.7,53.251c-41.364,14.042-78.54-1.224-78.92-1.383l-4.02,6.267a128.384,128.384,0,0,0,45.7,8.363,124.821,124.821,0,0,0,28.759-3.326l27.52,19.928c-31.449,10.745-60.873,10.123-80.473,7.578-22.6-2.945-36.5-8.966-36.635-9.024l-3.75,5.785c.627.265,15.724,6.484,39.2,9.573a194.692,194.692,0,0,0,25.341,1.649,180.209,180.209,0,0,0,64.507-11.651l5.515-2.111Z" transform="translate(-86.867 -145.72)" fill="#ed6a26"/><path d="M713.48,185.41h4.338v.964H713.48Zm1.677.482h.964v5.544h-.964Z" transform="translate(-403.535 -166.252)" fill="#231f20"/><path d="M728.114,185.41h1.147v6.04h-.93v-4.6l.043.265-1.321,3.582h-.8l-1.321-3.5.043-.347v4.6h-.93v-6.04H725.2l1.446,4.03Z" transform="translate(-409.01 -166.252)" fill="#231f20"/></g></g></svg>