<svg xmlns="http://www.w3.org/2000/svg" xmlns:xlink="http://www.w3.org/1999/xlink" width="99" height="94" viewBox="0 0 99 94"><defs><filter id="a" x="0" y="0" width="99" height="94" filterUnits="userSpaceOnUse"><feOffset dy="3" input="SourceAlpha"/><feGaussianBlur stdDeviation="3" result="b"/><feFlood flood-opacity="0.161"/><feComposite operator="in" in2="b"/><feComposite in="SourceGraphic"/></filter></defs><g transform="translate(9 6)"><g transform="matrix(1, 0, 0, 1, -9, -6)" filter="url(#a)"><rect width="81" height="76" rx="11" transform="translate(9 6)" fill="#ffa41c"/></g><g transform="translate(11.109 13.603)"><path d="M137.186,179.306v-1.423a.813.813,0,1,0-1.626,0v1.423a.813.813,0,1,0,1.626,0Z" transform="translate(-116.787 -159.073)" fill="#fff"/><path d="M187.186,179.306v-1.423a.813.813,0,0,0-1.626,0v1.423a.813.813,0,1,0,1.626,0Z" transform="translate(-161.705 -159.073)" fill="#fff"/><path d="M37.2,8.215A10.953,10.953,0,0,0,30.41,3.27a.814.814,0,0,0-.172-1.354c-5.618-2.7-13.024-2.851-17.6,1.559-3.768,3.632-4.074,8.8-4.03,10.863v4.168a3.359,3.359,0,0,0,2.549,3.256,10.821,10.821,0,0,0,3,7.112.813.813,0,0,0,1.176-1.123,9.207,9.207,0,0,1-2.558-6.386V16.248a7.459,7.459,0,0,0,3.984-3.51,21.858,21.858,0,0,0,14.513,3.831v4.8a9.255,9.255,0,0,1-12.8,8.543.816.816,0,0,0-1.126.757,4.692,4.692,0,0,1-3.161,4.428L9.808,36.6A6.318,6.318,0,0,0,5.56,42.57v5.41a.813.813,0,1,0,1.626,0V42.57a4.692,4.692,0,0,1,3.161-4.434l4.086-1.409,4.679,6.78h-.746a2.442,2.442,0,0,0-2.439,2.439V47.98a.813.813,0,1,0,1.626,0V45.947a.814.814,0,0,1,.813-.813h7.318a.814.814,0,0,1,.813.813V47.98a.813.813,0,1,0,1.626,0V45.947a2.442,2.442,0,0,0-2.439-2.439h-.746l1.715-2.486a.813.813,0,0,0-1.339-.924l-2.352,3.409H21.088l-5.145-7.456a6.322,6.322,0,0,0,2.932-4.276,10.909,10.909,0,0,0,6.3,0,6.32,6.32,0,0,0,1.574,3.166,6.635,6.635,0,0,1-7.355,1.406.813.813,0,1,0-.656,1.488A8.273,8.273,0,0,0,28,35.987a6.312,6.312,0,0,0,1.332.642c4.732,1.632,4.448,1.555,4.651,1.555a.811.811,0,0,0,.259-1.579c0-.01.183.06-4.38-1.513a4.692,4.692,0,0,1-3.133-3.924,10.889,10.889,0,0,0,6.171-9.8v-5.7a.813.813,0,0,0-.92-.806A20.249,20.249,0,0,1,16.93,10.847a.814.814,0,0,0-1.255.358,5.9,5.9,0,0,1-3.934,3.673.813.813,0,0,0-.591.782v4.37a1.729,1.729,0,0,1-.915-1.524s0-4.189,0-4.2c-.041-1.843.222-6.474,3.532-9.665,3.7-3.565,9.486-3.567,13.985-2l-.65.268a.813.813,0,0,0,.223,1.56l1.429.153A9.392,9.392,0,0,1,35.5,8.586a6.921,6.921,0,0,0-1.58,4.42v5.5a.813.813,0,0,0,1.626,0v-5.5A5.309,5.309,0,0,1,37.08,9.255a.869.869,0,0,0,.117-1.04Z" transform="translate(0 0)" fill="#fff"/><path d="M326.414,248.824c-6.124-1.913-6.484-6.3-13.228-6.256v-.684a.813.813,0,0,0-1.626,0v22.665a.813.813,0,1,0,1.626,0V244.193c6.007-.05,6.23,4.148,12.743,6.183a.813.813,0,0,1,.172,1.471c-2.378,1.432-5.6.86-9.647,2.254a.813.813,0,0,0,.53,1.537c3.893-1.342,7.168-.72,9.956-2.4a2.439,2.439,0,0,0-.526-4.417Z" transform="translate(-274.899 -216.568)" fill="#fff"/></g></g></svg>