<svg xmlns="http://www.w3.org/2000/svg" xmlns:xlink="http://www.w3.org/1999/xlink" width="99" height="94" viewBox="0 0 99 94"><defs><filter id="a" x="0" y="0" width="99" height="94" filterUnits="userSpaceOnUse"><feOffset dy="3" input="SourceAlpha"/><feGaussianBlur stdDeviation="3" result="b"/><feFlood flood-opacity="0.161"/><feComposite operator="in" in2="b"/><feComposite in="SourceGraphic"/></filter></defs><g transform="translate(9 6)"><g transform="matrix(1, 0, 0, 1, -9, -6)" filter="url(#a)"><rect width="81" height="76" rx="11" transform="translate(9 6)" fill="#ffa41c"/></g><g transform="translate(14.25 11.75)"><g transform="translate(4.258 27.065)"><path d="M8.115,47.353a2.444,2.444,0,0,0,1.709-1.794h.022a3.27,3.27,0,0,1-1.472-1.97h-.93a1.629,1.629,0,1,1,0-3.258h.815v-.815a6.905,6.905,0,0,0,3.086-.728l.172-.087.172.086a6.905,6.905,0,0,0,3.086.728v.815h.815a1.629,1.629,0,1,1,0,3.258h-.929a3.268,3.268,0,0,1-1.472,1.969h.022a2.443,2.443,0,0,0,1.709,1.794l2.148.434a6.474,6.474,0,0,0,.966-3.383V39.516A6.516,6.516,0,0,0,5,39.516V44.4a6.472,6.472,0,0,0,.967,3.383Z" transform="translate(-5 -33)" fill="#fff"/></g><g transform="translate(28.694 2.629)"><path d="M51.946,7.345A7.255,7.255,0,0,0,45.275,3h-1A7.255,7.255,0,0,0,37.6,7.345,5.848,5.848,0,0,0,35,12.218a5.218,5.218,0,0,0,2.086,4.157l1.781,1.286h.445a5.694,5.694,0,0,1-.239-1.629V12.774A12.218,12.218,0,0,0,46.4,10.331a9.76,9.76,0,0,0,3.814,2.357l.258.086v3.258a5.694,5.694,0,0,1-.239,1.629h.445l1.793-1.3a5.21,5.21,0,0,0,2.075-4.148,5.85,5.85,0,0,0-2.6-4.872Z" transform="translate(-35 -3)" fill="#fff"/></g><g transform="translate(5.887 5.073)"><path d="M7,6H18.4v4.073H7Z" transform="translate(-7 -6)" fill="#fff"/></g><g transform="translate(1 1)"><path d="M51.52,27.316A6.93,6.93,0,0,0,47.5,25.349l-2.3-.288a1.631,1.631,0,0,1-1.427-1.616v-.354a6.515,6.515,0,0,0,3.258-5.635V13.611l-.815-.271a9,9,0,0,1-3.5-2.161l-.5-.5-.566.424a11.479,11.479,0,0,1-6.842,2.281h-.815v4.073a6.516,6.516,0,0,0,3.258,5.635v.267a1.619,1.619,0,0,1-1.374,1.608,16.843,16.843,0,0,0-2.957.678,14.771,14.771,0,0,0-4.609,2.9l-6.536-6.537-1.989-1.989a3.182,3.182,0,0,0-5.027.7h-.314A2.447,2.447,0,0,0,12,23.158v1.629a2.447,2.447,0,0,0,2.444,2.444h3.735l6.481,6.481a5.682,5.682,0,0,0,6.738.97l.964-.525V53.3h16.29V47.444a2.416,2.416,0,0,0,.815.15H51.1A2.447,2.447,0,0,0,53.54,45.15V32.195a6.854,6.854,0,0,0-2.021-4.878ZM43.5,26.078a3.254,3.254,0,0,0,.625.35l-.837,4.6-1.755-2.194Zm-7.875-8.622v-2.47A13.148,13.148,0,0,0,42.066,12.8,10.655,10.655,0,0,0,45.4,14.781v2.676a4.887,4.887,0,0,1-9.774,0Zm4.887,6.516a6.51,6.51,0,0,0,1.658-.222,3.228,3.228,0,0,0,.265,1.016l-1.922,2.691-1.948-2.726a3.224,3.224,0,0,0,.283-.983,6.455,6.455,0,0,0,1.665.224Zm-1.021,4.859-1.756,2.2-.85-4.675a3.194,3.194,0,0,0,.6-.331ZM13.629,24.787V23.158a.816.816,0,0,1,.815-.815h1.318l.385-.771a1.544,1.544,0,0,1,1.389-.858,1.568,1.568,0,0,1,1.1.455l1.989,1.989L18.179,25.6H14.444a.816.816,0,0,1-.815-.815Zm16.99,8.464a4.053,4.053,0,0,1-4.808-.692l-6.143-6.143,2.106-2.106,5.847,5.847.755,1.511,1.457-.729-.542-1.086a13.465,13.465,0,0,1,4.144-2.664,14.586,14.586,0,0,1,1.859-.462l1.475,8.111,3.739-4.674,3.739,4.675,1.467-8.07,1.581.2a5.3,5.3,0,0,1,3.072,1.5,5.236,5.236,0,0,1,1.544,3.726v7.254H48.653V32.455a1.981,1.981,0,0,1,.576-1.39l-1.152-1.152a3.57,3.57,0,0,0-1.053,2.542v7.471l-.929.929a2.371,2.371,0,0,0-.6,1.038h-11.5V32.455a3.57,3.57,0,0,0-1.053-2.542l-1.152,1.152a1.976,1.976,0,0,1,.561,1.245ZM47.024,51.666h-5.7V49.355a2.756,2.756,0,0,1,1.886-2.617l-.516-1.545a4.381,4.381,0,0,0-2.186,1.618,4.382,4.382,0,0,0-2.186-1.618l-.516,1.545a2.755,2.755,0,0,1,1.888,2.617v2.312h-5.7V43.521H45.6a2.381,2.381,0,0,0,1.117,1.165l.306.153v6.827Zm4.073-5.7H49.468a.816.816,0,0,1-.815-.815V43.832l-1.207-.6a.764.764,0,0,1-.2-1.223l.929-.929h3.735V45.15a.816.816,0,0,1-.815.815Z" transform="translate(-3.04 -2.795)" fill="#fff"/><path d="M17.282,48.241l-2.883-.58a1.621,1.621,0,0,1-.953-.747,4.079,4.079,0,0,0,1.056-1.42h.345a2.444,2.444,0,1,0,0-4.887v-.815h-.815a6.119,6.119,0,0,1-2.722-.643l-.536-.268-.536.268a6.119,6.119,0,0,1-2.722.643H6.7v.815a2.444,2.444,0,1,0,0,4.887h.345A4.077,4.077,0,0,0,8.1,46.915a1.564,1.564,0,0,1-.892.731l-2.945.595A4.086,4.086,0,0,0,1,52.233v6.294H20.548V52.233A4.085,4.085,0,0,0,17.282,48.241Zm-1.621-5.19a.816.816,0,0,1-.815.815V42.236A.816.816,0,0,1,15.661,43.051Zm-9.774,0a.816.816,0,0,1,.815-.815v1.629A.816.816,0,0,1,5.887,43.051Zm2.444-1.673a7.757,7.757,0,0,0,2.444-.678,7.778,7.778,0,0,0,2.444.678v2.488a2.444,2.444,0,1,1-4.887,0Zm2.444,6.56a4.013,4.013,0,0,0,1.255-.218,3.245,3.245,0,0,0,.776.9L12.224,51.2h-2.9l-.579-2.564a3.263,3.263,0,0,0,.775-.912,4.012,4.012,0,0,0,1.254.218Zm1.082,4.887-.92,4.073h-.326l-.92-4.073Zm-9.228-.592a2.452,2.452,0,0,1,1.96-2.4L7.226,49.3l1.715,7.6H2.629ZM18.919,56.9H12.608L14.321,49.3l2.638.533a2.452,2.452,0,0,1,1.96,2.4Z" transform="translate(-1 -8.027)" fill="#fff"/><path d="M7,5H18.4V6.629H7Z" transform="translate(-2.113 -1.742)" fill="#fff"/><path d="M7,9h8.145v1.629H7Z" transform="translate(-2.113 -2.484)" fill="#fff"/><path d="M19,9h1.629v1.629H19Z" transform="translate(-4.339 -2.484)" fill="#fff"/><path d="M6.123,12.4h5.5L14.3,15.085a1.966,1.966,0,0,0,3.357-1.39V12.4H17.8A3.126,3.126,0,0,0,20.919,9.28V4.258A3.261,3.261,0,0,0,17.661,1H6.258A3.261,3.261,0,0,0,3,4.258V9.28A3.126,3.126,0,0,0,6.123,12.4ZM4.629,4.258A1.631,1.631,0,0,1,6.258,2.629h11.4A1.631,1.631,0,0,1,19.29,4.258V9.28A1.5,1.5,0,0,1,17.8,10.774H16.032V13.7a.35.35,0,0,1-.576.239l-3.16-3.16H6.123A1.5,1.5,0,0,1,4.629,9.28Z" transform="translate(-1.371 -1)" fill="#fff"/></g></g></g></svg>