<svg xmlns="http://www.w3.org/2000/svg" xmlns:xlink="http://www.w3.org/1999/xlink" width="99" height="94" viewBox="0 0 99 94"><defs><filter id="a" x="0" y="0" width="99" height="94" filterUnits="userSpaceOnUse"><feOffset dy="3" input="SourceAlpha"/><feGaussianBlur stdDeviation="3" result="b"/><feFlood flood-opacity="0.161"/><feComposite operator="in" in2="b"/><feComposite in="SourceGraphic"/></filter></defs><g transform="translate(9 6)"><g transform="matrix(1, 0, 0, 1, -9, -6)" filter="url(#a)"><rect width="81" height="76" rx="11" transform="translate(9 6)" fill="#ffa41c"/></g><g transform="translate(-10.969 14.149)"><g transform="translate(30.556)"><g transform="translate(0)"><path d="M70.686,297.828a8.444,8.444,0,0,0-5.672-6.638l-6.62-2.207V288H56.855v1.443l-1.149,4.594L52.6,290.308h-2.26l-3.108,3.729-1.148-4.594V288H44.544v.984l-6.62,2.207a8.447,8.447,0,0,0-5.672,6.638L30.556,308H72.381Zm-22.961,8.637H39.239l.685-6.848-1.531-.153-.7,7h-5.32l1.4-8.384a6.91,6.91,0,0,1,4.641-5.431l6.358-2.12,1.7,6.819,1.735-2.082.918,1.377Zm5.935,0H49.279l1.455-10.185-1.5-2.246,1.823-2.188h.818l1.823,2.188-1.5,2.246Zm11.586,0-.7-7-1.531.153.685,6.848H55.214l-1.4-9.82.918-1.377,1.735,2.082,1.7-6.819,6.358,2.12a6.91,6.91,0,0,1,4.641,5.431l1.4,8.384Z" transform="translate(-30.556 -260.302)" fill="#fff"/><path d="M115.422,20.731a8.411,8.411,0,0,0,2.139,3.61l3,3a3.821,3.821,0,0,0,2.72,1.126h3.606a3.822,3.822,0,0,0,2.72-1.126l3-3a8.416,8.416,0,0,0,2.139-3.61,3.821,3.821,0,0,0,1.854-6.882h.024V9.233a3.853,3.853,0,0,0-3.273-3.8A8.235,8.235,0,0,0,125.638,0h-.554a11.554,11.554,0,0,0-11.541,11.541v2.308h.024a3.821,3.821,0,0,0,1.855,6.882Zm18.126-2.375a6.879,6.879,0,0,1-2.028,4.9l-3,3a2.324,2.324,0,0,1-1.632.676H123.28a2.325,2.325,0,0,1-1.632-.676l-3-3a6.879,6.879,0,0,1-2.028-4.9V14.619h3.023a13.8,13.8,0,0,0,9.117-3.405l.235.392a6.239,6.239,0,0,0,4.552,2.961v3.789Zm3.078-1.429A2.3,2.3,0,0,1,135.05,19.1c.022-.247.036-.5.036-.748v-3.6A2.305,2.305,0,0,1,136.625,16.927Zm-21.543-5.386a10.014,10.014,0,0,1,10-10h.554a6.685,6.685,0,0,1,6.4,4.828l.159.558h.58a2.311,2.311,0,0,1,2.308,2.308v3.925a3.844,3.844,0,0,0-.769-.078,4.69,4.69,0,0,1-4-2.266l-1.232-2.053-.7.7a12.283,12.283,0,0,1-8.743,3.622h-3.792a3.843,3.843,0,0,0-.769.078Zm0,3.219v3.6c0,.252.015.5.036.749a2.294,2.294,0,0,1-.036-4.345Z" transform="translate(-104.171)" fill="#fff"/></g></g></g></g></svg>