<svg xmlns="http://www.w3.org/2000/svg" xmlns:xlink="http://www.w3.org/1999/xlink" width="99" height="94" viewBox="0 0 99 94"><defs><filter id="a" x="0" y="0" width="99" height="94" filterUnits="userSpaceOnUse"><feOffset dy="3" input="SourceAlpha"/><feGaussianBlur stdDeviation="3" result="b"/><feFlood flood-opacity="0.161"/><feComposite operator="in" in2="b"/><feComposite in="SourceGraphic"/></filter></defs><g transform="translate(9 6)"><g transform="matrix(1, 0, 0, 1, -9, -6)" filter="url(#a)"><rect width="81" height="76" rx="11" transform="translate(9 6)" fill="#ffa41c"/></g><path d="M37.574,34.438l1.592-3.184a1.151,1.151,0,0,0-1.029-1.666H31.89V28.274a2.386,2.386,0,0,0-2.384-2.384h-3.78V15.964L33.3,8.393a3.617,3.617,0,1,0-5.114-5.115L25.567,5.894a5.924,5.924,0,0,0-11.847,0L11.106,3.279A3.617,3.617,0,1,0,5.991,8.393l7.571,7.571V25.89H9.781A2.386,2.386,0,0,0,7.4,28.274v1.315H1.151A1.151,1.151,0,0,0,.122,31.254l1.592,3.184L.122,37.622a1.151,1.151,0,0,0,1.029,1.666H7.315A2.387,2.387,0,0,0,9.7,36.9V35.587l.082,0H29.506l.082,0V36.9a2.387,2.387,0,0,0,2.384,2.384h6.164a1.151,1.151,0,0,0,1.029-1.666ZM19.644,2.3a3.622,3.622,0,1,1-3.622,3.622A3.626,3.626,0,0,1,19.644,2.3ZM15.526,14.673,7.618,6.765A1.315,1.315,0,1,1,9.478,4.906l6.605,6.605a1.151,1.151,0,0,0,.814.337h5.494a1.151,1.151,0,0,0,.814-.337L29.81,4.906a1.315,1.315,0,1,1,1.859,1.859l-7.908,7.908a1.151,1.151,0,0,0-.337.814v10.4H15.863v-10.4a1.151,1.151,0,0,0-.337-.814ZM7.4,36.9a.086.086,0,0,1-.082.082h-4.3L4.03,34.953a1.151,1.151,0,0,0,0-1.029L3.013,31.89H7.4V36.9Zm22.109-3.617H9.781a.086.086,0,0,1-.082-.082V28.274a.086.086,0,0,1,.082-.082H29.507a.086.086,0,0,1,.082.082v4.931A.086.086,0,0,1,29.507,33.287Zm5.751,1.666,1.016,2.033h-4.3a.086.086,0,0,1-.082-.082V31.89h4.384l-1.016,2.033A1.15,1.15,0,0,0,35.258,34.953Z" transform="translate(20.856 18.356)" fill="#fff"/></g></svg>